<?xml version="1.0" encoding="UTF-8" standalone="no"?>
<svg
   xmlns:dc="http://purl.org/dc/elements/1.1/"
   xmlns:cc="http://creativecommons.org/ns#"
   xmlns:rdf="http://www.w3.org/1999/02/22-rdf-syntax-ns#"
   xmlns:svg="http://www.w3.org/2000/svg"
   xmlns="http://www.w3.org/2000/svg"
   xmlns:sodipodi="http://sodipodi.sourceforge.net/DTD/sodipodi-0.dtd"
   xmlns:inkscape="http://www.inkscape.org/namespaces/inkscape"
   version="1.1"
   x="0px"
   y="0px"
   viewBox="0 0 63.748001 54.453999"
   enable-background="new 0 0 64 64"
   xml:space="preserve"
   id="svg3386"
   inkscape:version="0.91 r13725"
   sodipodi:docname="icon.svg"
   width="63.748001"
   height="54.453999"><metadata
     id="metadata3408"><rdf:RDF><cc:Work
         rdf:about=""><dc:format>image/svg+xml</dc:format><dc:type
           rdf:resource="http://purl.org/dc/dcmitype/StillImage" /><dc:title></dc:title></cc:Work></rdf:RDF></metadata><defs
     id="defs3406" /><sodipodi:namedview
     pagecolor="#ffffff"
     bordercolor="#666666"
     borderopacity="1"
     objecttolerance="10"
     gridtolerance="10"
     guidetolerance="10"
     inkscape:pageopacity="0"
     inkscape:pageshadow="2"
     inkscape:window-width="2560"
     inkscape:window-height="1363"
     id="namedview3404"
     showgrid="false"
     fit-margin-top="0"
     fit-margin-left="0"
     fit-margin-right="0"
     fit-margin-bottom="0"
     inkscape:zoom="14.625"
     inkscape:cx="31.874"
     inkscape:cy="13.549915"
     inkscape:window-x="-9"
     inkscape:window-y="-9"
     inkscape:window-maximized="1"
     inkscape:current-layer="svg3386" /><g
     id="g3388"
     transform="translate(-0.126,-4.566)"><path
       d="m 56.956,59.02 -49.912,0 0,-23.03 24.826,-25.361 25.086,25.358 0,23.033 z m -47.912,-2 45.912,0 0,-20.21 -23.078,-23.329 -22.834,23.326 0,20.213 z"
       id="path3390"
       inkscape:connector-curvature="0" /><polygon
       points="63.874,36.441 62.46,37.855 32.001,7.394 1.54,37.855 0.126,36.441 32.001,4.566 "
       id="polygon3392" /><path
       d="m 31.134,50.184 c -5.761,0 -10.448,-4.688 -10.448,-10.449 0,-5.76 4.687,-10.446 10.448,-10.446 2.791,0 5.415,1.087 7.388,3.06 1.973,1.973 3.06,4.596 3.06,7.386 0,2.723 -1.04,5.299 -2.928,7.254 -1.989,2.06 -4.66,3.195 -7.52,3.195 z m 0.002,-18.896 c -4.659,0 -8.45,3.789 -8.45,8.446 0,4.659 3.79,8.449 8.448,8.449 2.313,0 4.473,-0.918 6.08,-2.584 1.526,-1.581 2.367,-3.664 2.367,-5.865 0,-4.657 -3.789,-8.446 -8.445,-8.446 z"
       id="path3394"
       inkscape:connector-curvature="0" /><rect
       x="40.226002"
       y="44.186001"
       transform="matrix(0.9695,0.245,-0.245,0.9695,12.6506,-11.3312)"
       width="23.296"
       height="2"
       id="rect3396" /><path
       d="m 32.683,46.202 c -2.194,0 -3.997,-0.646 -5.366,-1.923 -2.441,-2.277 -2.532,-5.719 -2.535,-5.864 l 2,-0.037 -1,0.019 1,-0.021 c 0,0.027 0.089,2.764 1.911,4.452 1.08,1.001 2.594,1.465 4.49,1.361 l 0.102,1.998 c -0.205,0.009 -0.405,0.015 -0.602,0.015 z"
       id="path3398"
       inkscape:connector-curvature="0" /></g></svg>